<svg xmlns="http://www.w3.org/2000/svg" xmlns:xlink="http://www.w3.org/1999/xlink" viewBox="0 0 505.44 382.94"><defs><style>.cls-1,.cls-10,.cls-11,.cls-15,.cls-22,.cls-3,.cls-5{fill:none;}.cls-2{fill:#222221;}.cls-3{stroke:#222221;stroke-width:0.3px;}.cls-4{isolation:isolate;}.cls-5{stroke:#000;}.cls-22,.cls-5{stroke-miterlimit:10;}.cls-6{fill:#afb4e8;}.cls-7{opacity:0.4;fill:url(#Líneas_cuadrícula_0_5_pulg);}.cls-7,.cls-8,.cls-9{mix-blend-mode:overlay;}.cls-8{fill:url(#_10_ppp_30_);}.cls-9{fill:url(#_10_ppp_30_3);}.cls-10,.cls-11,.cls-15{stroke:#430f76;stroke-linecap:round;stroke-linejoin:round;}.cls-10,.cls-11{stroke-width:7px;}.cls-11{stroke-dasharray:0 27.58;}.cls-12{fill:#430f76;}.cls-13{fill:#5c7cef;}.cls-14,.cls-19{fill:#fff;}.cls-16{fill:#89f9db;}.cls-17{fill:#e4e5f8;}.cls-18{fill:#361fa0;}.cls-19{opacity:0.14;}.cls-20{fill:#bcf275;}.cls-21{fill:#a36eed;}.cls-22{stroke:#89f9db;stroke-width:4px;}</style><pattern id="Líneas_cuadrícula_0_5_pulg" data-name="Líneas cuadrícula 0,5 pulg" width="72" height="72" patternTransform="translate(-971.28 -507.84) scale(3.43 2.64)" patternUnits="userSpaceOnUse" viewBox="0 0 72 72"><rect class="cls-1" width="72" height="72"/><line class="cls-3" x1="54" y1="71.75" x2="54" y2="144.25"/><line class="cls-3" x1="18" y1="71.75" x2="18" y2="144.25"/><line class="cls-3" x1="71.75" y1="18" x2="144.25" y2="18"/><line class="cls-3" x1="71.75" y1="54" x2="144.25" y2="54"/><line class="cls-3" x1="-0.25" y1="18" x2="72.25" y2="18"/><line class="cls-3" x1="54" y1="-0.25" x2="54" y2="72.25"/><line class="cls-3" x1="-0.25" y1="54" x2="72.25" y2="54"/><line class="cls-3" x1="18" y1="-0.25" x2="18" y2="72.25"/><line class="cls-3" x1="-72.25" y1="18" x2="0.25" y2="18"/><line class="cls-3" x1="-72.25" y1="54" x2="0.25" y2="54"/><line class="cls-3" x1="54" y1="-72.25" x2="54" y2="0.25"/><line class="cls-3" x1="18" y1="-72.25" x2="18" y2="0.25"/></pattern><pattern id="_10_ppp_30_" data-name="10 ppp 30%" width="28.8" height="28.8" patternTransform="translate(20.19 118.8)" patternUnits="userSpaceOnUse" viewBox="0 0 28.8 28.8"><rect class="cls-1" width="28.8" height="28.8"/><path class="cls-2" d="M28.8,31a2.16,2.16,0,1,0-2.16-2.16A2.16,2.16,0,0,0,28.8,31Z"/><path class="cls-2" d="M14.4,31a2.16,2.16,0,1,0-2.16-2.16A2.16,2.16,0,0,0,14.4,31Z"/><path class="cls-2" d="M28.8,16.56a2.16,2.16,0,1,0-2.16-2.16A2.16,2.16,0,0,0,28.8,16.56Z"/><path class="cls-2" d="M14.4,16.56a2.16,2.16,0,1,0-2.16-2.16A2.16,2.16,0,0,0,14.4,16.56Z"/><path class="cls-2" d="M7.2,23.76A2.16,2.16,0,1,0,5,21.6,2.16,2.16,0,0,0,7.2,23.76Z"/><path class="cls-2" d="M21.6,23.76a2.16,2.16,0,1,0-2.16-2.16A2.16,2.16,0,0,0,21.6,23.76Z"/><path class="cls-2" d="M7.2,9.36A2.16,2.16,0,1,0,5,7.2,2.16,2.16,0,0,0,7.2,9.36Z"/><path class="cls-2" d="M21.6,9.36A2.16,2.16,0,1,0,19.44,7.2,2.16,2.16,0,0,0,21.6,9.36Z"/><path class="cls-2" d="M0,31A2.16,2.16,0,0,0,2.16,28.8,2.16,2.16,0,0,0,0,26.64,2.16,2.16,0,0,0,0,31Z"/><path class="cls-2" d="M0,16.56A2.16,2.16,0,0,0,2.16,14.4,2.16,2.16,0,0,0,0,12.24a2.16,2.16,0,1,0,0,4.32Z"/><path class="cls-2" d="M28.8,2.16A2.16,2.16,0,0,0,31,0a2.16,2.16,0,0,0-4.32,0A2.16,2.16,0,0,0,28.8,2.16Z"/><path class="cls-2" d="M14.4,2.16A2.16,2.16,0,0,0,16.56,0a2.16,2.16,0,1,0-4.32,0A2.16,2.16,0,0,0,14.4,2.16Z"/><path class="cls-2" d="M0,2.16A2.16,2.16,0,0,0,2.16,0,2.16,2.16,0,0,0,0-2.16,2.16,2.16,0,0,0-2.16,0,2.16,2.16,0,0,0,0,2.16Z"/></pattern><pattern id="_10_ppp_30_3" data-name="10 ppp 30%" width="28.8" height="28.8" patternTransform="translate(51.18 58.2)" patternUnits="userSpaceOnUse" viewBox="0 0 28.8 28.8"><rect class="cls-1" width="28.8" height="28.8"/><path class="cls-2" d="M28.8,31a2.16,2.16,0,1,0-2.16-2.16A2.16,2.16,0,0,0,28.8,31Z"/><path class="cls-2" d="M14.4,31a2.16,2.16,0,1,0-2.16-2.16A2.16,2.16,0,0,0,14.4,31Z"/><path class="cls-2" d="M28.8,16.56a2.16,2.16,0,1,0-2.16-2.16A2.16,2.16,0,0,0,28.8,16.56Z"/><path class="cls-2" d="M14.4,16.56a2.16,2.16,0,1,0-2.16-2.16A2.16,2.16,0,0,0,14.4,16.56Z"/><path class="cls-2" d="M7.2,23.76A2.16,2.16,0,1,0,5,21.6,2.16,2.16,0,0,0,7.2,23.76Z"/><path class="cls-2" d="M21.6,23.76a2.16,2.16,0,1,0-2.16-2.16A2.16,2.16,0,0,0,21.6,23.76Z"/><path class="cls-2" d="M7.2,9.36A2.16,2.16,0,1,0,5,7.2,2.16,2.16,0,0,0,7.2,9.36Z"/><path class="cls-2" d="M21.6,9.36A2.16,2.16,0,1,0,19.44,7.2,2.16,2.16,0,0,0,21.6,9.36Z"/><path class="cls-2" d="M0,31A2.16,2.16,0,0,0,2.16,28.8,2.16,2.16,0,0,0,0,26.64,2.16,2.16,0,0,0,0,31Z"/><path class="cls-2" d="M0,16.56A2.16,2.16,0,0,0,2.16,14.4,2.16,2.16,0,0,0,0,12.24a2.16,2.16,0,1,0,0,4.32Z"/><path class="cls-2" d="M28.8,2.16A2.16,2.16,0,0,0,31,0a2.16,2.16,0,0,0-4.32,0A2.16,2.16,0,0,0,28.8,2.16Z"/><path class="cls-2" d="M14.4,2.16A2.16,2.16,0,0,0,16.56,0a2.16,2.16,0,1,0-4.32,0A2.16,2.16,0,0,0,14.4,2.16Z"/><path class="cls-2" d="M0,2.16A2.16,2.16,0,0,0,2.16,0,2.16,2.16,0,0,0,0-2.16,2.16,2.16,0,0,0-2.16,0,2.16,2.16,0,0,0,0,2.16Z"/></pattern></defs><g class="cls-4"><g id="OBJECTS"><path class="cls-5" d="M740.51,238.53" transform="translate(-119.26 -61.71)"/><path class="cls-6" d="M599.35,234.86l.21-.81c5.22-21.31,7.49-43.53,3-65.2-11.05-53.59-66.43-88.18-117-60.29-57.95,32-96.05,90.78-170.61,80.22-56.9-8.06-100-53.22-154.93-6.77-58.71,49.68-25.84,126.75,22.86,169.59C236.79,399,314.09,428,385.8,418.84c81.68-10.46,159.63-65.74,196.75-139.12A214.59,214.59,0,0,0,599.35,234.86Z" transform="translate(-119.26 -61.71)"/><rect class="cls-7" width="493.19" height="379.44"/><circle class="cls-8" cx="234.34" cy="136.76" r="71.36" transform="translate(-147.32 144.05) rotate(-45)"/><circle class="cls-9" cx="553.33" cy="364.16" r="71.36" transform="translate(-214.69 436.21) rotate(-45)"/><line class="cls-10" x1="65.46" y1="98.3" x2="65.46" y2="98.3"/><line class="cls-11" x1="65.46" y1="125.88" x2="65.46" y2="167.24"/><line class="cls-10" x1="65.46" y1="181.03" x2="65.46" y2="181.03"/><line class="cls-10" x1="318.64" y1="379.44" x2="318.64" y2="379.44"/><line class="cls-11" x1="291.06" y1="379.44" x2="249.7" y2="379.44"/><line class="cls-10" x1="235.91" y1="379.44" x2="235.91" y2="379.44"/><rect class="cls-12" x="125.75" y="33.01" width="172.67" height="290.66" rx="10.68"/><path class="cls-13" d="M410.68,105.4V374.71a3.68,3.68,0,0,1-3.68,3.68H255.68a3.68,3.68,0,0,1-3.67-3.68V105.4a3.68,3.68,0,0,1,3.67-3.67H407A3.68,3.68,0,0,1,410.68,105.4Z" transform="translate(-119.26 -61.71)"/><circle class="cls-14" cx="212.09" cy="125.24" r="52.66"/><line class="cls-15" x1="210.66" y1="87.73" x2="210.66" y2="80.05"/><circle class="cls-12" cx="210.66" cy="80.05" r="1.43"/><rect class="cls-12" x="189.74" y="146.84" width="44.7" height="11.08" rx="4.3"/><path class="cls-16" d="M209.67,86.44h2A3.41,3.41,0,0,1,215,89.85v5.37a0,0,0,0,1,0,0h-8.78a0,0,0,0,1,0,0V89.85A3.41,3.41,0,0,1,209.67,86.44Z"/><path class="cls-16" d="M175,114.08h7.44a0,0,0,0,1,0,0v15.49a0,0,0,0,1,0,0H175a6,6,0,0,1-6-6V120.1A6,6,0,0,1,175,114.08Z"/><path class="cls-16" d="M367,175.79h7.44a0,0,0,0,1,0,0v15.49a0,0,0,0,1,0,0H367a6,6,0,0,1-6-6v-3.46A6,6,0,0,1,367,175.79Z" transform="translate(616.17 305.37) rotate(180)"/><path class="cls-17" d="M367.4,184.25c0,16.39-16.14,29.69-36.06,29.69a43.39,43.39,0,0,1-6.49-.49c-10.75-1.59-19.85-7.14-25-14.75a25.21,25.21,0,0,1,.27-29.3l.35.25a8.62,8.62,0,0,0,5.08,6,22.91,22.91,0,0,0,8,1.69c12.12.95,24.29.37,36.43-.19a16,16,0,0,0,4.73-.71c3.43-1.25,5.55-4.63,7.34-7.83A25.84,25.84,0,0,1,367.4,184.25Z" transform="translate(-119.26 -61.71)"/><path class="cls-18" d="M362,168.63c-1.79,3.2-3.91,6.58-7.34,7.83a16,16,0,0,1-4.73.71c-12.14.56-24.31,1.14-36.43.19a22.91,22.91,0,0,1-8-1.69,8.62,8.62,0,0,1-5.08-6l-.35-.25c6.23-8.87,17.88-14.85,31.22-14.85C344.3,154.55,355.67,160.18,362,168.63Z" transform="translate(-119.26 -61.71)"/><path class="cls-15" d="M322.88,192.5a11,11,0,0,0,16.93.12" transform="translate(-119.26 -61.71)"/><path class="cls-12" d="M317.44,187a2.71,2.71,0,1,0-2.71,2.7A2.71,2.71,0,0,0,317.44,187Z" transform="translate(-119.26 -61.71)"/><circle class="cls-12" cx="228.7" cy="125.24" r="2.71"/><path class="cls-13" d="M324.85,210v3.47c-10.75-1.59-19.85-7.14-25-14.75h13.72A11.27,11.27,0,0,1,324.85,210Z" transform="translate(-119.26 -61.71)"/><path class="cls-13" d="M337.83,210v3.47c10.76-1.59,19.86-7.14,25-14.75H349.11A11.27,11.27,0,0,0,337.83,210Z" transform="translate(-119.26 -61.71)"/><path class="cls-19" d="M410.68,105.4V220.34L301,378.39H255.68a3.68,3.68,0,0,1-3.67-3.68v-85.2l130.7-187.78H407A3.68,3.68,0,0,1,410.68,105.4Z" transform="translate(-119.26 -61.71)"/><path class="cls-14" d="M530.35,160.85c2.09,7.5,7.16,13.78,12.57,19.38-12.82,8.46-23,20.31-36.74,25.85l-.11,0c-.53.22-1.07.41-1.61.62a3.65,3.65,0,0,1-.18-.41,203.16,203.16,0,0,1-7.65-20.62,8.88,8.88,0,0,1-11.51,1.78,16.33,16.33,0,0,1-3-2.77,102.36,102.36,0,0,1-12.64-17.57,35.8,35.8,0,0,0-5.28,1.38,2.39,2.39,0,0,1-1.51.14c-.78-.25-1.09-1.19-1.21-2-.89-6.06,2.24-12.19,1.33-18.26a35.42,35.42,0,0,0-1.8-6.09c-2.1-6.05-3.43-12.68-1.72-18.85,2.59-9.33,11.94-15.76,21.56-16.89s19.3,2.3,27.53,7.41a34.66,34.66,0,0,1,10.09,8.8,36.91,36.91,0,0,1,3.64,6.53,86.69,86.69,0,0,1,6.55,22.07A86,86,0,0,0,530.35,160.85Z" transform="translate(-119.26 -61.71)"/><path class="cls-15" d="M514.3,149.54a10,10,0,0,1-6.52,3.1,3.71,3.71,0,0,1-3-.87" transform="translate(-119.26 -61.71)"/><path class="cls-12" d="M506.11,205.91l.07.17-.11,0c-.53.22-1.07.41-1.61.62a201.18,201.18,0,0,1-7.83-21,110.57,110.57,0,0,0,16.73-22.15C512.38,177.92,511.35,192.52,506.11,205.91Z" transform="translate(-119.26 -61.71)"/><path class="cls-15" d="M466.05,144.46a10.84,10.84,0,0,1,6.86-1.47,13.85,13.85,0,0,1,2.84.69,18,18,0,0,1,3.22,1.46" transform="translate(-119.26 -61.71)"/><path class="cls-12" d="M470.74,147.89l-.66,1.21c.73,1.67,1.6,3.48,3.26,4.23a1.1,1.1,0,0,0,.66.14c.45-.06.73-.55.82-1a3.29,3.29,0,0,0-.39-2.1,6.74,6.74,0,0,0-1.37-1.69,3.48,3.48,0,0,0-1.22-.83C471.37,147.68,470.83,147.73,470.74,147.89Z" transform="translate(-119.26 -61.71)"/><path class="cls-13" d="M519.41,378.88l-.13.4q-4,13-6.8,26.34l-.4-.09a48,48,0,0,1-7.66-2.44,28,28,0,0,1-13.74-14.23,39.81,39.81,0,0,1-2.9-19.7c.69,0,1.38.12,2.06.19a60.16,60.16,0,0,1,13,2.79c3.82,1.32,7.43,3.16,11.16,4.72C515.79,377.6,517.59,378.27,519.41,378.88Z" transform="translate(-119.26 -61.71)"/><path class="cls-13" d="M535.92,383.47c5.33,1.32,11,2.62,16.53,2.15l.06.67c-6.18,17.43-12.45,35.47-11.26,54.12q-16.77,1.48-33.64,1.66a266.16,266.16,0,0,1,4.87-36.45q2.74-13.35,6.8-26.34l.13-.4C524.8,380.71,530.37,382.09,535.92,383.47Z" transform="translate(-119.26 -61.71)"/><path class="cls-13" d="M512.08,405.53l.4.09a266.16,266.16,0,0,0-4.87,36.45,431,431,0,0,1-44-1.79s0-46.88.39-70.33a95.62,95.62,0,0,1,23.78-.79,39.81,39.81,0,0,0,2.9,19.7,28,28,0,0,0,13.74,14.23A48,48,0,0,0,512.08,405.53Z" transform="translate(-119.26 -61.71)"/><path class="cls-16" d="M504.46,206.75c.54-.21,1.08-.4,1.61-.62l.11,0c13.78-5.54,23.92-17.39,36.74-25.85,11.28,8.13,16.84,21.66,20.57,35.05a125,125,0,0,1,3,52.85c-1,6.28-2.49,12.47-3.84,18.67a499.74,499.74,0,0,0-9.56,62c-1.1,12.17-1.45,25.5,5.79,35.34a22.4,22.4,0,0,1-6.43,1.48c-5.54.47-11.2-.83-16.53-2.15-5.55-1.38-11.12-2.76-16.51-4.59-1.82-.61-3.62-1.28-5.38-2-3.73-1.56-7.34-3.4-11.16-4.72a60.16,60.16,0,0,0-13-2.79c-.68-.07-1.37-.14-2.06-.19A95.62,95.62,0,0,0,464,370a93.29,93.29,0,0,0-9.34,1.95C456,364,456.8,357,457.61,350c1.2-10.21,2.4-20.44,2.54-30.72.17-10.53-.77-21.11.26-31.59,1.74-17.53,8.92-34.11,17.61-49.44,6.75-11.91,14.68-23.52,25.69-31.67l.57-.25A3.65,3.65,0,0,0,504.46,206.75Z" transform="translate(-119.26 -61.71)"/><path class="cls-15" d="M519.28,379.28q-4,13-6.8,26.34a266.16,266.16,0,0,0-4.87,36.45c0,.08,0,.14,0,.22" transform="translate(-119.26 -61.71)"/><path class="cls-15" d="M487.8,369.06s0,.06,0,.1a39.81,39.81,0,0,0,2.9,19.7,28,28,0,0,0,13.74,14.23,48,48,0,0,0,7.66,2.44" transform="translate(-119.26 -61.71)"/><path class="cls-5" d="M519.35,297" transform="translate(-119.26 -61.71)"/><path class="cls-15" d="M525.4,222.35c-4.92,14.47-8.07,29.46-11.21,44.41a157.83,157.83,0,0,0-3.35,20.35,16.09,16.09,0,0,0,.29,5.54,15.82,15.82,0,0,0,2.46,4.64,67.06,67.06,0,0,0,13.32,14.06" transform="translate(-119.26 -61.71)"/><path class="cls-16" d="M406.93,226.71q10.51,13.77,22.16,26.6l-.08.21q-5.82-2.21-11.69-4.28l.05-.15c-5.08-5.85-10.17-11.71-15.08-17.62a4.35,4.35,0,0,1,1.91-2.65A26.61,26.61,0,0,0,406.93,226.71Z" transform="translate(-119.26 -61.71)"/><path class="cls-14" d="M477.73,284.11c-2.15,1.21-3,3.76-3.36,6.17-1.12,6.63-.13,13.6-2.13,20-7.43-4.7-14.05-10.56-20.5-16.53a33.58,33.58,0,0,0-7-5.49c-3.18-1.71-6.83-2.33-10.21-3.61a44,44,0,0,1-6.91-3.42,16.8,16.8,0,0,1-5.29-4.26,6.46,6.46,0,0,1-.94-6.45l.22-.35-.33-.22a12.57,12.57,0,0,1-4.47-4.43,5.34,5.34,0,0,1,.42-5.95l.13-.24-2.88-1.52c-1.94-1-3.94-2.1-5.08-4s-.89-4.72,1.05-5.71c1.44-.75,3.18-.22,4.71.32l2.16.77q5.88,2.08,11.69,4.28,5.17,1.92,10.33,3.94c-2.6-2.4-5.21-4.67-7.83-6.92a6.4,6.4,0,0,1-1.7-1.93,2.19,2.19,0,0,1,.22-2.41,2.6,2.6,0,0,1,1.89-.62c2.41,0,4.6,1.28,6.64,2.55,3.7,2.35,7.31,4.86,10.9,7.37a9.91,9.91,0,0,1,2.19,1.83,10.55,10.55,0,0,1,1.66,3.4c1.46,4.14,3,8.48,6.25,11.42a25.22,25.22,0,0,0,4.12,2.86C468.3,277.79,473.1,281.33,477.73,284.11Z" transform="translate(-119.26 -61.71)"/><path class="cls-18" d="M494.67,143.62l6.87-.19c.46-4.19,1.09-8.72,4.06-11.71a5,5,0,0,1,4.15-1.73A5.64,5.64,0,0,1,513,132.2a15.7,15.7,0,0,1,1.28,17.69c3.55,2.78,9.08,1.57,12.27-1.62s4.5-7.81,5.16-12.27c1.51-10.2.17-21-5-29.95a14.57,14.57,0,0,0-3.93-4.74c-3.34-2.39-7.81-2.22-12.22-1.67-3.55-3.76-7.24-7.62-12-9.67-3.69-1.58-7.76-2-11.76-2.25a44.75,44.75,0,0,0-10.79.19,37.47,37.47,0,0,0-8.34,2.71,46,46,0,0,0-13.88,8.63c-4,3.78-6.94,8.78-7.52,14.23s1.93,11.5,7.08,13c3.48,1,7.19-.33,10.43-2s6.48-3.56,10.1-3.85,7,1.06,10.11,2.67a10,10,0,0,1,3.32,2.38,11.09,11.09,0,0,1,1.65,3.34C490.82,134,492.6,139,494.67,143.62Z" transform="translate(-119.26 -61.71)"/><path class="cls-15" d="M475.38,176c3.1-1.56,11.85-5.41,12.88-15.06" transform="translate(-119.26 -61.71)"/><path class="cls-15" d="M496.22,213.74c8.84.78,17.67-2.27,25.22-6.93s14-10.87,20.35-17.06a34.76,34.76,0,0,0,5.12-5.79" transform="translate(-119.26 -61.71)"/><path class="cls-15" d="M414.48,257.82l2.88,1.52c3.3,1.72,6.61,3.45,9.9,5.19" transform="translate(-119.26 -61.71)"/><path class="cls-15" d="M417.23,259.58a5.34,5.34,0,0,0-.42,5.95,12.57,12.57,0,0,0,4.47,4.43l.33.22a41.61,41.61,0,0,0,5.79,3.17" transform="translate(-119.26 -61.71)"/><path class="cls-15" d="M558.8,307.74c-2.76,6.57-5.6,13.17-9.92,18.84s-10.27,10.36-17.26,11.73c-7.9,1.54-16-1.3-23.27-4.66a151.27,151.27,0,0,1-36.11-23.34v0c2-6.41,1-13.38,2.13-20,.39-2.41,1.21-5,3.36-6.17q16.86,6.09,34.12,11" transform="translate(-119.26 -61.71)"/><path class="cls-20" d="M292.12,232.18v-12a3.63,3.63,0,0,0-6.59-2.09L274.1,234.27a3.62,3.62,0,0,1-3,1.54H212.47a3.62,3.62,0,0,0-3.62,3.63v47.47a3.62,3.62,0,0,0,3.62,3.62H328.89a3.63,3.63,0,0,0,3.63-3.62V239.44a3.63,3.63,0,0,0-3.63-3.63H295.75A3.63,3.63,0,0,1,292.12,232.18Z" transform="translate(-119.26 -61.71)"/><rect class="cls-18" x="103.08" y="185.87" width="57.91" height="7.93"/><rect class="cls-13" x="167.72" y="185.87" width="35.68" height="7.93"/><rect class="cls-14" x="103.08" y="198.1" width="35.12" height="7.93"/><rect class="cls-13" x="145.58" y="198.1" width="39.97" height="7.93"/><rect class="cls-14" x="312.02" y="259.82" width="10.64" height="7.93" transform="translate(515.42 465.85) rotate(180)"/><rect class="cls-13" x="103.08" y="210.34" width="26.15" height="7.93"/><rect class="cls-18" x="136" y="210.34" width="36.86" height="7.93"/><rect class="cls-13" x="299.8" y="272.05" width="22.86" height="7.89" transform="translate(503.19 490.27) rotate(180)"/><path class="cls-21" d="M397.87,295.75V283.17a3.63,3.63,0,0,0-6.66-2L380.4,297.73a3.62,3.62,0,0,1-3,1.65H321.09a3.62,3.62,0,0,0-3.63,3.62v47.48a3.62,3.62,0,0,0,3.63,3.62H437.5a3.62,3.62,0,0,0,3.63-3.62V303a3.62,3.62,0,0,0-3.63-3.62h-36A3.63,3.63,0,0,1,397.87,295.75Z" transform="translate(-119.26 -61.71)"/><rect class="cls-6" x="371.54" y="336.01" width="57.91" height="7.93" transform="translate(681.74 618.24) rotate(180)"/><rect class="cls-14" x="329.14" y="336.01" width="35.68" height="7.93" transform="translate(574.7 618.24) rotate(180)"/><rect class="cls-18" x="394.33" y="323.77" width="35.12" height="7.93" transform="translate(704.53 593.77) rotate(180)"/><rect class="cls-13" x="346.98" y="323.77" width="39.97" height="7.93" transform="translate(614.67 593.77) rotate(180)"/><rect class="cls-18" x="209.88" y="262.06" width="10.64" height="7.93"/><rect class="cls-13" x="403.31" y="311.54" width="26.15" height="7.93" transform="translate(713.5 569.3) rotate(180)"/><rect class="cls-17" x="359.68" y="311.54" width="36.86" height="7.93" transform="translate(636.95 569.3) rotate(180)"/><rect class="cls-13" x="209.88" y="249.87" width="22.86" height="7.89"/><rect class="cls-18" x="56.99" y="246.59" width="118.73" height="109.38" rx="21.2"/><rect class="cls-14" x="90.78" y="275.7" width="51.15" height="51.15" rx="8.9"/><rect class="cls-20" x="103.08" y="288.01" width="26.54" height="26.54" rx="3.86"/><line class="cls-22" x1="100.39" y1="275.7" x2="100.39" y2="259.79"/><line class="cls-22" x1="108.39" y1="275.7" x2="108.39" y2="259.79"/><line class="cls-22" x1="116.38" y1="275.7" x2="116.38" y2="259.79"/><line class="cls-22" x1="124.37" y1="275.7" x2="124.37" y2="259.79"/><line class="cls-22" x1="132.37" y1="275.7" x2="132.37" y2="259.79"/><line class="cls-22" x1="90.78" y1="317.24" x2="74.87" y2="317.24"/><line class="cls-22" x1="90.78" y1="309.24" x2="74.87" y2="309.24"/><line class="cls-22" x1="90.78" y1="301.25" x2="74.87" y2="301.25"/><line class="cls-22" x1="90.78" y1="293.26" x2="74.87" y2="293.26"/><line class="cls-22" x1="90.78" y1="285.26" x2="74.87" y2="285.26"/><line class="cls-22" x1="132.31" y1="326.85" x2="132.31" y2="342.76"/><line class="cls-22" x1="124.32" y1="326.85" x2="124.32" y2="342.76"/><line class="cls-22" x1="116.33" y1="326.85" x2="116.33" y2="342.76"/><line class="cls-22" x1="108.33" y1="326.85" x2="108.33" y2="342.76"/><line class="cls-22" x1="100.34" y1="326.85" x2="100.34" y2="342.76"/><line class="cls-22" x1="141.93" y1="285.32" x2="157.83" y2="285.32"/><line class="cls-22" x1="141.93" y1="293.31" x2="157.83" y2="293.31"/><line class="cls-22" x1="141.93" y1="301.3" x2="157.83" y2="301.3"/><line class="cls-22" x1="141.93" y1="309.3" x2="157.83" y2="309.3"/><line class="cls-22" x1="141.93" y1="317.29" x2="157.83" y2="317.29"/><rect class="cls-17" x="272.12" y="118.96" width="82.87" height="41.75" rx="11.02"/><path class="cls-12" d="M421.74,211.29,404,203.39v-3l17.78-8.9v5.23l-10.9,5,10.9,4.43Z" transform="translate(-119.26 -61.71)"/><path class="cls-12" d="M440.73,188.33l-9.59,26.44h-6.08l9.59-26.44Z" transform="translate(-119.26 -61.71)"/><path class="cls-12" d="M443.87,206.1l10.91-4.43-10.91-5v-5.23l17.79,8.9v3l-17.79,7.9Z" transform="translate(-119.26 -61.71)"/></g></g></svg>